<svg width="259" height="55" viewBox="0 0 259 55" fill="none" xmlns="http://www.w3.org/2000/svg">
<path d="M43.88 13.08H56.84C62.52 13.08 66.48 16.56 66.48 22.72C66.48 28.88 62.52 32.36 56.84 32.36H50.08V43H43.88V13.08ZM56.04 18.52H50.04V26.88H56.04C58.44 26.88 60.2 25.44 60.2 22.72C60.2 20 58.44 18.52 56.04 18.52Z" fill="#FF5126"/>
<path d="M87.1609 13.08H94.3609L83.0409 31.48V43H76.8809V31.48L65.5209 13.08H72.6809L79.9209 25.36L87.1609 13.08Z" fill="#FF5126"/>
<path d="M113.826 31.24L120.186 43H113.226L107.386 32.24H102.386V43H96.1863V13.08H108.986C114.666 13.08 118.626 16.52 118.626 22.68C118.626 26.84 116.786 29.8 113.826 31.24ZM102.346 18.52V26.76H108.226C110.626 26.76 112.346 25.32 112.346 22.68C112.346 19.96 110.626 18.52 108.226 18.52H102.346Z" fill="#FF5126"/>
<path d="M137.207 12.64C146.167 12.64 152.727 18.64 152.727 28.04C152.727 37.44 146.167 43.44 137.207 43.44C128.247 43.44 121.647 37.44 121.647 28.04C121.647 18.64 128.247 12.64 137.207 12.64ZM137.207 18.12C131.727 18.12 127.927 21.84 127.927 28.04C127.927 34.2 131.727 37.96 137.207 37.96C142.647 37.96 146.447 34.2 146.447 28.04C146.447 21.84 142.647 18.12 137.207 18.12Z" fill="#FF5126"/>
<path d="M156.5 13.08H169.46C175.14 13.08 179.1 16.56 179.1 22.72C179.1 28.88 175.14 32.36 169.46 32.36H162.7V43H156.5V13.08ZM168.66 18.52H162.66V26.88H168.66C171.06 26.88 172.82 25.44 172.82 22.72C172.82 20 171.06 18.52 168.66 18.52Z" fill="#1E2024"/>
<path d="M182.146 13.08H188.346V37.52H201.386V43H182.146V13.08Z" fill="#1E2024"/>
<path d="M216.995 12.64C225.955 12.64 232.515 18.64 232.515 28.04C232.515 37.44 225.955 43.44 216.995 43.44C208.035 43.44 201.435 37.44 201.435 28.04C201.435 18.64 208.035 12.64 216.995 12.64ZM216.995 18.12C211.515 18.12 207.715 21.84 207.715 28.04C207.715 34.2 211.515 37.96 216.995 37.96C222.435 37.96 226.235 34.2 226.235 28.04C226.235 21.84 222.435 18.12 216.995 18.12Z" fill="#1E2024"/>
<path d="M232.568 13.08H258.768V18.52H248.768V43H242.568V18.52H232.568V13.08Z" fill="#1E2024"/>
<path d="M29.655 40.1661C27.7565 44.6559 24.3373 47.104 19.4765 48C23.8958 44.0831 25.0747 39.4578 23.4525 34.0933C22.3233 35.4538 21.2021 36.8038 20.0808 38.156C19.9377 38.0726 19.7966 37.9872 19.6534 37.9039C20.2498 35.0267 20.0789 32.2018 19.0192 29.5201C17.9775 26.8804 16.7688 24.3157 15.3156 21.7779C15.1626 22.4821 15.0234 23.1904 14.8564 23.8905C14.0851 27.1302 12.2601 29.7488 10.3456 32.318C8.67573 34.5597 7.20061 36.8953 6.89846 39.8452C6.59429 42.8287 7.45512 45.3185 9.57033 47.3266C9.72937 47.4787 9.9878 47.5162 10.0872 47.7266C3.99787 47.3912 -0.580436 41.4848 0.0597945 35.0472C0.222809 33.4138 0.618444 31.8075 0.82517 30.1762C1.19693 27.2281 1.50505 24.2698 1.84898 21.2259C3.46325 23.7343 5.12123 26.3137 6.90843 29.0929C6.78319 17.7383 7.90837 7.13575 17.4051 0C17.5402 0.0583384 17.6754 0.114586 17.8106 0.172924C17.4031 1.06048 16.9617 1.9355 16.592 2.8397C14.9101 6.95656 15.5364 10.7483 18.1227 14.2338C18.7569 15.088 19.4388 15.9026 20.1247 16.713C22.4049 19.4048 24.0649 22.4215 24.7129 26.0259C25.693 23.2591 25.1264 20.5921 24.2 17.6901C24.6116 18.0005 24.8422 18.1485 25.0409 18.3318C25.2755 18.5506 25.4843 18.7985 25.701 19.036C30.7505 24.5781 32.4621 33.524 29.6531 40.1659L29.655 40.1661Z" fill="#FF5126"/>
</svg>
